<svg width="78" height="14" viewBox="0 0 78 14" fill="none" xmlns="http://www.w3.org/2000/svg">
<g clip-path="url(#clip0_2972_185)">
<path d="M4.80718 4.28309L1.08551 4.82267L1.0196 4.83609C0.919813 4.86258 0.828845 4.91507 0.755985 4.98822C0.683125 5.06137 0.630984 5.15254 0.604884 5.25243C0.578785 5.35231 0.579664 5.45734 0.607431 5.55678C0.635198 5.65622 0.688858 5.7465 0.762931 5.81842L3.4591 8.44284L2.82326 12.1499L2.81568 12.2141C2.80957 12.3173 2.831 12.4203 2.87778 12.5125C2.92455 12.6047 2.99499 12.6828 3.08188 12.7388C3.16877 12.7948 3.26898 12.8268 3.37227 12.8313C3.47555 12.8359 3.57819 12.8129 3.66968 12.7648L6.99818 11.0148L10.3191 12.7648L10.3774 12.7916C10.4737 12.8295 10.5784 12.8411 10.6806 12.8253C10.7829 12.8094 10.8791 12.7666 10.9594 12.7013C11.0396 12.636 11.1011 12.5505 11.1374 12.4536C11.1737 12.3567 11.1836 12.2519 11.1661 12.1499L10.5297 8.44284L13.227 5.81784L13.2725 5.76825C13.3375 5.6882 13.3801 5.59235 13.396 5.49047C13.4119 5.38858 13.4005 5.28431 13.363 5.18826C13.3255 5.09222 13.2631 5.00784 13.1824 4.94372C13.1016 4.8796 13.0053 4.83803 12.9033 4.82325L9.1816 4.28309L7.51793 0.91142C7.46979 0.813731 7.39527 0.73147 7.30279 0.673947C7.21032 0.616424 7.10359 0.585938 6.99468 0.585938C6.88578 0.585938 6.77905 0.616424 6.68657 0.673947C6.5941 0.73147 6.51957 0.813731 6.47143 0.91142L4.80718 4.28309Z" fill="#FF9446"/>
</g>
<g clip-path="url(#clip1_2972_185)">
<path d="M20.8072 4.28309L17.0855 4.82267L17.0196 4.83609C16.9198 4.86258 16.8288 4.91507 16.756 4.98822C16.6831 5.06137 16.631 5.15254 16.6049 5.25243C16.5788 5.35231 16.5797 5.45734 16.6074 5.55678C16.6352 5.65622 16.6889 5.7465 16.7629 5.81842L19.4591 8.44284L18.8233 12.1499L18.8157 12.2141C18.8096 12.3173 18.831 12.4203 18.8778 12.5125C18.9246 12.6047 18.995 12.6828 19.0819 12.7388C19.1688 12.7948 19.269 12.8268 19.3723 12.8313C19.4756 12.8359 19.5782 12.8129 19.6697 12.7648L22.9982 11.0148L26.3191 12.7648L26.3774 12.7916C26.4737 12.8295 26.5784 12.8411 26.6806 12.8253C26.7829 12.8094 26.8791 12.7666 26.9594 12.7013C27.0396 12.636 27.1011 12.5505 27.1374 12.4536C27.1737 12.3567 27.1836 12.2519 27.1661 12.1499L26.5297 8.44284L29.227 5.81784L29.2725 5.76825C29.3375 5.6882 29.3801 5.59235 29.396 5.49047C29.4119 5.38858 29.4005 5.28431 29.363 5.18826C29.3255 5.09222 29.2631 5.00784 29.1824 4.94372C29.1016 4.8796 29.0053 4.83803 28.9033 4.82325L25.1816 4.28309L23.5179 0.91142C23.4698 0.813731 23.3953 0.73147 23.3028 0.673947C23.2103 0.616424 23.1036 0.585938 22.9947 0.585938C22.8858 0.585938 22.779 0.616424 22.6866 0.673947C22.5941 0.73147 22.5196 0.813731 22.4714 0.91142L20.8072 4.28309Z" fill="#FF9446"/>
</g>
<g clip-path="url(#clip2_2972_185)">
<path d="M36.8072 4.28309L33.0855 4.82267L33.0196 4.83609C32.9198 4.86258 32.8288 4.91507 32.756 4.98822C32.6831 5.06137 32.631 5.15254 32.6049 5.25243C32.5788 5.35231 32.5797 5.45734 32.6074 5.55678C32.6352 5.65622 32.6889 5.7465 32.7629 5.81842L35.4591 8.44284L34.8233 12.1499L34.8157 12.2141C34.8096 12.3173 34.831 12.4203 34.8778 12.5125C34.9246 12.6047 34.995 12.6828 35.0819 12.7388C35.1688 12.7948 35.269 12.8268 35.3723 12.8313C35.4756 12.8359 35.5782 12.8129 35.6697 12.7648L38.9982 11.0148L42.3191 12.7648L42.3774 12.7916C42.4737 12.8295 42.5784 12.8411 42.6806 12.8253C42.7829 12.8094 42.8791 12.7666 42.9594 12.7013C43.0396 12.636 43.1011 12.5505 43.1374 12.4536C43.1737 12.3567 43.1836 12.2519 43.1661 12.1499L42.5297 8.44284L45.227 5.81784L45.2725 5.76825C45.3375 5.6882 45.3801 5.59235 45.396 5.49047C45.4119 5.38858 45.4005 5.28431 45.363 5.18826C45.3255 5.09222 45.2631 5.00784 45.1824 4.94372C45.1016 4.8796 45.0053 4.83803 44.9033 4.82325L41.1816 4.28309L39.5179 0.91142C39.4698 0.813731 39.3953 0.73147 39.3028 0.673947C39.2103 0.616424 39.1036 0.585938 38.9947 0.585938C38.8858 0.585938 38.779 0.616424 38.6866 0.673947C38.5941 0.73147 38.5196 0.813731 38.4714 0.91142L36.8072 4.28309Z" fill="#FF9446"/>
</g>
<g clip-path="url(#clip3_2972_185)">
<path d="M52.8072 4.28309L49.0855 4.82267L49.0196 4.83609C48.9198 4.86258 48.8288 4.91507 48.756 4.98822C48.6831 5.06137 48.631 5.15254 48.6049 5.25243C48.5788 5.35231 48.5797 5.45734 48.6074 5.55678C48.6352 5.65622 48.6889 5.7465 48.7629 5.81842L51.4591 8.44284L50.8233 12.1499L50.8157 12.2141C50.8096 12.3173 50.831 12.4203 50.8778 12.5125C50.9246 12.6047 50.995 12.6828 51.0819 12.7388C51.1688 12.7948 51.269 12.8268 51.3723 12.8313C51.4756 12.8359 51.5782 12.8129 51.6697 12.7648L54.9982 11.0148L58.3191 12.7648L58.3774 12.7916C58.4737 12.8295 58.5784 12.8411 58.6806 12.8253C58.7829 12.8094 58.8791 12.7666 58.9594 12.7013C59.0396 12.636 59.1011 12.5505 59.1374 12.4536C59.1737 12.3567 59.1836 12.2519 59.1661 12.1499L58.5297 8.44284L61.227 5.81784L61.2725 5.76825C61.3375 5.6882 61.3801 5.59235 61.396 5.49047C61.4119 5.38858 61.4005 5.28431 61.363 5.18826C61.3255 5.09222 61.2631 5.00784 61.1824 4.94372C61.1016 4.8796 61.0053 4.83803 60.9033 4.82325L57.1816 4.28309L55.5179 0.91142C55.4698 0.813731 55.3953 0.73147 55.3028 0.673947C55.2103 0.616424 55.1036 0.585938 54.9947 0.585938C54.8858 0.585938 54.779 0.616424 54.6866 0.673947C54.5941 0.73147 54.5196 0.813731 54.4714 0.91142L52.8072 4.28309Z" fill="#FF9446"/>
</g>
<g clip-path="url(#clip4_2972_185)">
<path d="M70.9988 0.582235C71.0939 0.582597 71.1875 0.60636 71.2712 0.651429C71.3549 0.696497 71.4263 0.761483 71.4789 0.840652L71.518 0.908319L73.1817 4.28057L76.9033 4.82015C77.3356 4.88315 77.5333 5.36849 77.3134 5.71032L77.2726 5.76574L77.2271 5.8159L74.5298 8.44032L75.1656 12.1474C75.1822 12.2441 75.1741 12.3434 75.1421 12.4362C75.1102 12.5289 75.0554 12.6121 74.9828 12.6781C74.9102 12.7441 74.8221 12.7907 74.7267 12.8137C74.6313 12.8366 74.5317 12.8352 74.437 12.8095L74.3781 12.7891L74.3192 12.7622L70.9983 11.0122L67.6698 12.7622C67.6085 12.7943 67.5461 12.8147 67.4831 12.8241L67.4213 12.8299C67.3399 12.8329 67.2587 12.8188 67.183 12.7886C67.1074 12.7584 67.0388 12.7128 66.9818 12.6546C66.9248 12.5964 66.8806 12.5269 66.852 12.4506C66.8234 12.3743 66.8111 12.2929 66.8158 12.2116L66.8233 12.1474L67.4592 8.44032L64.7624 5.81532C64.6927 5.74739 64.641 5.66311 64.6122 5.57014C64.5833 5.47717 64.5782 5.37846 64.5972 5.28298C64.6162 5.18751 64.6588 5.0983 64.7211 5.02348C64.7833 4.94866 64.8633 4.89059 64.9538 4.85457L65.0197 4.83357L65.0862 4.82015L68.8073 4.28057L70.4715 0.908902C70.5179 0.808925 70.5926 0.72472 70.6863 0.666672C70.78 0.608624 70.8887 0.579272 70.9988 0.582235ZM70.9988 2.49207V9.76974C71.0458 9.76974 71.0926 9.77542 71.1383 9.78665L71.2053 9.80765L71.2707 9.83682L73.8158 11.1779L73.3281 8.33532C73.3041 8.19484 73.3323 8.05042 73.4074 7.92932L73.4483 7.87157L73.4961 7.81907L75.5646 5.80482L72.7115 5.39182C72.5705 5.37135 72.4418 5.29997 72.3498 5.19115L72.3073 5.13457L72.2723 5.07274L70.9988 2.49207Z" fill="#FF9446"/>
</g>
<defs>
<clipPath id="clip0_2972_185">
<rect width="14" height="14" fill="white"/>
</clipPath>
<clipPath id="clip1_2972_185">
<rect width="14" height="14" fill="white" transform="translate(16)"/>
</clipPath>
<clipPath id="clip2_2972_185">
<rect width="14" height="14" fill="white" transform="translate(32)"/>
</clipPath>
<clipPath id="clip3_2972_185">
<rect width="14" height="14" fill="white" transform="translate(48)"/>
</clipPath>
<clipPath id="clip4_2972_185">
<rect width="14" height="14" fill="white" transform="translate(64)"/>
</clipPath>
</defs>
</svg>
