<svg width="48" height="46" viewBox="0 0 48 46" fill="none" xmlns="http://www.w3.org/2000/svg">
<path d="M36.4591 6.61822C36.1491 6.79274 35.5681 7.12193 35.5391 7.14132L40.3469 9.94039C40.3759 9.92052 40.9571 9.59134 41.267 9.41729C42.836 8.53582 44.2597 8.46775 45.3057 9.06833L40.4978 6.27914C39.4518 5.66906 38.0281 5.73674 36.4591 6.61822Z" fill="#5793FB"/>
<path d="M37.5177 3.7589C35.8281 2.7797 5.76108 37.4642 5.76108 38.4912C5.77068 39.9312 6.29868 40.9587 7.11468 41.4481L2.30508 38.645C1.48908 38.1748 0.970677 37.1473 0.961077 35.6881C0.941973 32.8466 2.89068 29.4481 5.38668 27.9988C5.61708 27.8643 6.07788 27.6149 6.10668 27.5957C6.07788 22.9682 9.24588 17.4388 13.2875 15.0965C14.7659 14.2612 16.1482 14.0114 17.3099 14.2711C18.4234 9.1926 21.9178 3.96981 26.1706 1.51269C28.7146 0.0914119 31.0282 -0.0139962 32.7082 0.955796L37.5177 3.7589Z" fill="#5793FB"/>
<path d="M47.0377 12.8692C47.0569 16.5362 44.5513 20.9331 41.3353 22.7855C40.1353 23.4671 39.0025 23.6593 38.0714 23.4385C36.5929 26.8562 34.0681 29.9663 31.1305 31.6655C29.0954 32.8078 27.2234 33.0192 25.7546 32.4239C24.9578 32.7985 24.209 32.8946 23.585 32.7507C22.433 35.4 20.4842 37.8094 18.1994 39.1345C15.953 40.3922 13.9658 40.1808 12.7754 38.8369C12.0842 39.7969 11.2202 40.613 10.2506 41.1792C7.78345 42.5615 5.78665 41.3522 5.75785 38.4909C5.74825 35.64 7.68745 32.2416 10.193 30.7922C10.433 30.6577 10.8842 30.4078 10.9034 30.3891C10.8842 25.7616 14.0426 20.2323 18.0842 17.8993C19.5722 17.0546 20.9546 16.8048 22.1162 17.064C23.2298 11.9856 26.7242 6.76331 30.977 4.30562C36.1129 1.42571 40.3081 3.94101 40.3465 9.93112C40.3753 9.92171 40.9513 9.58562 41.2585 9.41311C44.4264 7.63701 47.0185 9.18251 47.0377 12.8692Z" fill="#7BB1FF"/>
<path d="M18 36.0198L18.0104 38.8248C18.0104 39.0592 18.0938 39.2209 18.2242 39.2993L29.1127 45.6256C28.9771 45.5475 28.8937 45.3856 28.8937 45.1511L28.8885 42.3461C28.8885 41.882 29.2169 41.3084 29.6237 41.074L42.9034 33.4043C43.1068 33.2895 43.2945 33.2791 43.43 33.3573L32.5414 27.0309C32.4059 26.9528 32.2234 26.9632 32.0148 27.0777L18.7404 34.7474C18.3284 34.9821 18 35.5556 18 36.0198Z" fill="#4C5671"/>
<path d="M29.6272 41.0717C29.2178 41.3081 28.8893 41.8809 28.8906 42.3476L28.8986 45.1515C28.8999 45.622 29.2306 45.8104 29.64 45.574L42.9189 37.9074C43.325 37.673 43.6569 37.1021 43.6555 36.6316L43.6476 33.8277C43.6462 33.3609 43.3122 33.1707 42.9061 33.4051L29.6272 41.0717Z" fill="#272E3A"/>
<path d="M37.4301 38.0352L37.4345 39.6073L30.0045 43.8971L30 42.3249L37.4301 38.0352Z" fill="#4C5671"/>
<path d="M40.1569 36.6102C40.4597 36.4353 40.7069 36.5761 40.7079 36.9281C40.7089 37.2761 40.4633 37.7014 40.1604 37.8763C39.8574 38.0512 39.6103 37.9104 39.6094 37.5624C39.6083 37.2103 39.8539 36.785 40.1569 36.6102Z" fill="#FFDD94"/>
<path d="M41.9928 35.5489C42.299 35.3722 42.5461 35.513 42.5472 35.8649C42.5482 36.2129 42.3026 36.6382 41.9964 36.815C41.6935 36.9899 41.4463 36.8491 41.4453 36.5011C41.4443 36.1491 41.6898 35.7238 41.9928 35.5489Z" fill="#77CB77"/>
<path d="M19.9922 33.0485V35.3223C19.9922 35.3809 20.0313 35.4394 20.1093 35.4861L28.8514 40.5662C29.0035 40.656 29.2571 40.656 29.4132 40.5625L41.8836 33.3673C41.9617 33.3205 42.0008 33.258 42.0008 33.1995L41.9968 30.9258C41.9968 30.9842 41.9578 31.0427 41.8798 31.0896L29.4093 38.2887C29.2532 38.3782 28.9996 38.3782 28.8474 38.2887L20.1054 33.2086C20.0273 33.1657 19.9922 33.107 19.9922 33.0485Z" fill="#373F51"/>
<path d="M18 29.9767L18.0104 32.7818C18.0104 33.0163 18.0938 33.1779 18.2242 33.2563L29.1127 39.5827C28.9771 39.5045 28.8937 39.3426 28.8937 39.1082L28.8885 36.3031C28.8885 35.839 29.2169 35.2655 29.6237 35.0309L42.9034 27.3614C43.1068 27.2466 43.2945 27.2361 43.43 27.3143L32.5414 20.988C32.4059 20.9098 32.2234 20.9202 32.0148 21.0348L18.7404 28.7043C18.3284 28.9391 18 29.5127 18 29.9767Z" fill="#4C5671"/>
<path d="M29.6272 35.0288C29.2178 35.2651 28.8893 35.8379 28.8906 36.3046L28.8986 39.1086C28.8999 39.579 29.2306 39.7674 29.64 39.5311L42.9189 31.8645C43.325 31.63 43.6569 31.0591 43.6555 30.5886L43.6476 27.7847C43.6462 27.3179 43.3122 27.1277 42.9061 27.3622L29.6272 35.0288Z" fill="#272E3A"/>
<path d="M37.4301 31.9922L37.4345 33.5645L30.0045 37.8542L30 36.282L37.4301 31.9922Z" fill="#4C5671"/>
<path d="M40.1569 30.5672C40.4597 30.3923 40.7069 30.5332 40.7079 30.8852C40.7089 31.2332 40.4633 31.6585 40.1604 31.8334C39.8574 32.0083 39.6103 31.8675 39.6094 31.5194C39.6083 31.1674 39.8539 30.7422 40.1569 30.5672Z" fill="#FFDD94"/>
<path d="M41.9928 29.506C42.299 29.3292 42.5461 29.47 42.5472 29.822C42.5482 30.17 42.3026 30.5953 41.9964 30.7721C41.6935 30.947 41.4463 30.8061 41.4453 30.4581C41.4443 30.1062 41.6898 29.6809 41.9928 29.506Z" fill="#77CB77"/>
<path d="M19.9922 26.7673V29.041C19.9922 29.0997 20.0313 29.1583 20.1093 29.2049L28.8514 34.285C29.0035 34.3748 29.2571 34.3748 29.4132 34.2812L41.8836 27.0862C41.9617 27.0393 42.0008 26.9768 42.0008 26.9183L41.9968 24.6445C41.9968 24.703 41.9578 24.7616 41.8798 24.8084L29.4093 32.0074C29.2532 32.097 28.9996 32.097 28.8474 32.0074L20.1054 26.9273C20.0273 26.8845 19.9922 26.8257 19.9922 26.7673Z" fill="#373F51"/>
<path d="M18 23.9338L18.0104 26.7389C18.0104 26.9733 18.0938 27.1349 18.2242 27.2134L29.1127 33.5397C28.9771 33.4615 28.8937 33.2997 28.8937 33.0652L28.8885 30.2601C28.8885 29.7961 29.2169 29.2225 29.6237 28.988L42.9034 21.3184C43.1068 21.2036 43.2945 21.1932 43.43 21.2714L32.5414 14.945C32.4059 14.8668 32.2234 14.8773 32.0148 14.9918L18.7404 22.6614C18.3284 22.8962 18 23.4698 18 23.9338Z" fill="#4C5671"/>
<path d="M29.6272 28.9858C29.2178 29.2222 28.8893 29.7949 28.8906 30.2617L28.8986 33.0655C28.8999 33.536 29.2306 33.7245 29.64 33.4881L42.9189 25.8215C43.325 25.587 43.6569 25.0161 43.6555 24.5456L43.6476 21.7418C43.6462 21.275 43.3122 21.0847 42.9061 21.3192L29.6272 28.9858Z" fill="#272E3A"/>
<path d="M37.4301 25.9492L37.4345 27.5214L30.0045 31.8112L30 30.239L37.4301 25.9492Z" fill="#4C5671"/>
<path d="M40.1569 24.5243C40.4597 24.3494 40.7069 24.4902 40.7079 24.8421C40.7089 25.1901 40.4633 25.6155 40.1604 25.7903C39.8574 25.9652 39.6103 25.8244 39.6094 25.4764C39.6083 25.1245 39.8539 24.6991 40.1569 24.5243Z" fill="#FFDD94"/>
<path d="M41.9928 23.463C42.299 23.2862 42.5461 23.427 42.5472 23.779C42.5482 24.127 42.3026 24.5522 41.9964 24.7291C41.6935 24.904 41.4463 24.7631 41.4453 24.4151C41.4443 24.0631 41.6898 23.6378 41.9928 23.463Z" fill="#77CB77"/>
</svg>
