<svg width="24" height="24" viewBox="0 0 24 24" fill="none" xmlns="http://www.w3.org/2000/svg">
<path fill-rule="evenodd" clip-rule="evenodd" d="M23.8813 9.47386C24.3024 7.15804 23.8813 1.54974 17.9296 0.134102C16.2835 -0.25742 12.3241 -0.0527463 8.81505 4.40965C7.89165 3.86921 6.8211 3.56523 5.67211 3.56523C3.32433 3.56523 1.17351 4.83214 0.348558 6.93431C-0.761492 9.79274 0.660398 13.2634 6.34472 14.7371C5.69074 13.9897 2.7657 12.0002 2.97622 9.68438C3.1046 8.27226 4.44994 7.36856 5.41622 7.04252C6.97202 6.51756 9.18875 6.67378 10.9228 8.262C12.1702 5.59022 14.5554 4.42112 16.3022 4.00009C19.6081 3.36847 23.2497 4.84219 23.8813 9.47386Z" fill="#147AFF"/>
<path fill-rule="evenodd" clip-rule="evenodd" d="M12.5234 7.58718C13.3969 6.93506 14.3398 6.55145 15.2672 6.40201C20.769 5.78465 21.8451 9.59183 21.2361 11.6472C21.1221 12.0321 20.6756 13.5156 19.6479 14.263C20.6756 13.9828 21.7967 12.9381 22.1704 12.3945C24.2257 9.40499 22.1934 4.7743 17.5622 5.01698C15.6625 5.11528 13.8885 6.17613 12.5234 7.58718Z" fill="#147AFF"/>
<path opacity="0.5" fill-rule="evenodd" clip-rule="evenodd" d="M17.5223 6.41603C17.6157 5.85548 18.2067 5.68689 18.5112 5.59163C19.3278 5.40663 20.6294 5.75411 21.3527 6.22918C20.1382 5.20153 18.862 4.94457 17.5223 5.01468C15.6226 5.11299 13.8729 6.19276 12.5078 7.60381C13.3813 6.95168 14.3241 6.56808 15.2515 6.41863C16.2002 6.31807 16.8683 6.32262 17.5223 6.41603Z" fill="#147AFF"/>
<path d="M5.45312 20.4584L15.0963 9.43359H19.0221L9.48143 20.4584H5.45312Z" fill="#147AFF"/>
<path d="M12.7656 18.4927L17.5932 23.9558H21.519L14.8252 16.0898L12.7656 18.4927Z" fill="#147AFF"/>
<path d="M5.35156 9.45703L9.43109 14.1606L11.4907 11.7577L9.37984 9.45703H5.35156Z" fill="#147AFF"/>
</svg>
